HIERARCHY
ROOT hip
{
  OFFSET 0 0 0
  CHANNELS 6 Xposition Yposition Zposition Zrotation Yrotation Xrotation
  JOINT abdomen
  {
    OFFSET 0 20.6881 -0.73152
    CHANNELS 3 Zrotation Xrotation Yrotation
    JOINT chest
    {
      OFFSET 0 11.7043 -0.48768
      CHANNELS 3 Zrotation Xrotation Yrotation
      JOINT neck
      {
        OFFSET 0 22.1894 -2.19456
        CHANNELS 3 Zrotation Xrotation Yrotation
        JOINT head
        {
          OFFSET -0.24384 7.07133 1.2192
          CHANNELS 3 Zrotation Xrotation Yrotation
          JOINT leftEye
          {
            OFFSET 4.14528 8.04674 8.04672
            CHANNELS 3 Zrotation Xrotation Yrotation
            End Site
            {
              OFFSET 1 0 0
            }
          }
          JOINT rightEye
          {
            OFFSET -3.6576 8.04674 8.04672
            CHANNELS 3 Zrotation Xrotation Yrotation
            End Site
            {
              OFFSET 1 0 0
            }
          }
        }
      }
      JOINT rCollar
      {
        OFFSET -2.68224 19.2634 -4.8768
        CHANNELS 3 Zrotation Xrotation Yrotation
        JOINT rShldr
        {
          OFFSET -8.77824 -1.95073 1.46304
          CHANNELS 3 Zrotation Xrotation Yrotation
          JOINT rForeArm
          {
            OFFSET -28.1742 -1.7115 0.48768
            CHANNELS 3 Zrotation Xrotation Yrotation
            JOINT rHand
            {
              OFFSET -22.5879 0.773209 7.07136
              CHANNELS 3 Zrotation Xrotation Yrotation
              JOINT rThumb1
              {
                OFFSET -1.2192 -0.487915 3.41376
                CHANNELS 3 Zrotation Xrotation Yrotation
                JOINT rThumb2
                {
                  OFFSET -3.37035 -0.52449 3.41376
                  CHANNELS 3 Zrotation Xrotation Yrotation
                  End Site
                  {
                    OFFSET -1.78271 -1.18214 1.43049
                  }
                }
              }
              JOINT rIndex1
              {
                OFFSET -7.75947 0.938293 5.60832
                CHANNELS 3 Zrotation Xrotation Yrotation
                JOINT rIndex2
                {
                  OFFSET -2.54057 -0.884171 1.56538
                  CHANNELS 3 Zrotation Xrotation Yrotation
                  End Site
                  {
                    OFFSET -1.62519 -0.234802 1.16502
                  }
                }
              }
              JOINT rMid1
              {
                OFFSET -8.24714 1.18213 3.41376
                CHANNELS 3 Zrotation Xrotation Yrotation
                JOINT rMid2
                {
                  OFFSET -3.10165 -0.590103 1.0647
                  CHANNELS 3 Zrotation Xrotation Yrotation
                  End Site
                  {
                    OFFSET -2.48547 -0.328903 0.83742
                  }
                }
              }
              JOINT rRing1
              {
                OFFSET -8.82822 0.546677 1.51678
                CHANNELS 3 Zrotation Xrotation Yrotation
                JOINT rRing2
                {
                  OFFSET -2.60934 -0.819778 -0.0198488
                  CHANNELS 3 Zrotation Xrotation Yrotation
                  End Site
                  {
                    OFFSET -2.33842 -0.294052 0.168128
                  }
                }
              }
              JOINT rPinky1
              {
                OFFSET -8.27202 -0.0477905 -0.4584
                CHANNELS 3 Zrotation Xrotation Yrotation
                JOINT rPinky2
                {
                  OFFSET -1.82734 -0.647385 -0.700984
                  CHANNELS 3 Zrotation Xrotation Yrotation
                  End Site
                  {
                    OFFSET -1.69225 -0.51767 -0.607171
                  }
                }
              }
            }
          }
        }
      }
      JOINT lCollar
      {
        OFFSET 2.68224 19.2634 -4.8768
        CHANNELS 3 Zrotation Xrotation Yrotation
        JOINT lShldr
        {
          OFFSET 8.77824 -1.95073 1.46304
          CHANNELS 3 Zrotation Xrotation Yrotation
          JOINT lForeArm
          {
            OFFSET 28.1742 -1.7115 0.48768
            CHANNELS 3 Zrotation Xrotation Yrotation
            JOINT lHand
            {
              OFFSET 22.5879 0.773209 7.07136
              CHANNELS 3 Zrotation Xrotation Yrotation
              JOINT lThumb1
              {
                OFFSET 1.2192 -0.487915 3.41376
                CHANNELS 3 Zrotation Xrotation Yrotation
                JOINT lThumb2
                {
                  OFFSET 3.37035 -0.52449 3.41376
                  CHANNELS 3 Zrotation Xrotation Yrotation
                  End Site
                  {
                    OFFSET 1.78271 -1.18214 1.43049
                  }
                }
              }
              JOINT lIndex1
              {
                OFFSET 7.75947 0.938293 5.60832
                CHANNELS 3 Zrotation Xrotation Yrotation
                JOINT lIndex2
                {
                  OFFSET 2.54057 -0.884171 1.56538
                  CHANNELS 3 Zrotation Xrotation Yrotation
                  End Site
                  {
                    OFFSET 1.62519 -0.234802 1.16502
                  }
                }
              }
              JOINT lMid1
              {
                OFFSET 8.24714 1.18213 3.41376
                CHANNELS 3 Zrotation Xrotation Yrotation
                JOINT lMid2
                {
                  OFFSET 3.10165 -0.590103 1.0647
                  CHANNELS 3 Zrotation Xrotation Yrotation
                  End Site
                  {
                    OFFSET 2.48547 -0.328903 0.83742
                  }
                }
              }
              JOINT lRing1
              {
                OFFSET 8.82822 0.546677 1.51678
                CHANNELS 3 Zrotation Xrotation Yrotation
                JOINT lRing2
                {
                  OFFSET 2.60934 -0.819778 -0.0198488
                  CHANNELS 3 Zrotation Xrotation Yrotation
                  End Site
                  {
                    OFFSET 2.33842 -0.294052 0.168128
                  }
                }
              }
              JOINT lPinky1
              {
                OFFSET 8.27202 -0.0477905 -0.4584
                CHANNELS 3 Zrotation Xrotation Yrotation
                JOINT lPinky2
                {
                  OFFSET 1.82734 -0.647385 -0.700984
                  CHANNELS 3 Zrotation Xrotation Yrotation
                  End Site
                  {
                    OFFSET 1.69225 -0.51767 -0.607171
                  }
                }
              }
            }
          }
        }
      }
    }
  }
  JOINT rButtock
  {
    OFFSET -8.77824 4.35084 1.2192
    CHANNELS 3 Zrotation Xrotation Yrotation
    JOINT rThigh
    {
      OFFSET 0 -1.70687 -2.19456
      CHANNELS 3 Zrotation Xrotation Yrotation
      JOINT rShin
      {
        OFFSET 0 -36.8199 0.73152
        CHANNELS 3 Zrotation Xrotation Yrotation
        JOINT rFoot
        {
          OFFSET 0.73152 -45.1104 -5.12064
          CHANNELS 3 Zrotation Xrotation Yrotation
          End Site
          {
            OFFSET -1.1221 -3.69964 12.103
          }
        }
      }
    }
  }
  JOINT lButtock
  {
    OFFSET 8.77824 4.35084 1.2192
    CHANNELS 3 Zrotation Xrotation Yrotation
    JOINT lThigh
    {
      OFFSET 0 -1.70687 -2.19456
      CHANNELS 3 Zrotation Xrotation Yrotation
      JOINT lShin
      {
        OFFSET 0 -36.8199 0.73152
        CHANNELS 3 Zrotation Xrotation Yrotation
        JOINT lFoot
        {
          OFFSET -0.73152 -45.1104 -5.12064
          CHANNELS 3 Zrotation Xrotation Yrotation
          End Site
          {
            OFFSET 1.1221 -3.69964 12.103
          }
        }
      }
    }
  }
}
MOTION
Frames:	7
Frame Time:	0.03333
0.0 0.0 0.0 0.0 0.0 0.0 0.0 0.0 0.0 0.0 0.0 0.0 0.0 0.0 0.0 0.0 0.0 0.0 0.0 0.0 0.0 0.0 0.0 0.0 0.0 0.0 0.0 0.0 0.0 0.0 0.0 0.0 0.0 0.0 0.0 0.0 0.0 0.0 0.0 0.0 0.0 0.0 0.0 0.0 0.0 0.0 0.0 0.0 0.0 0.0 0.0 0.0 0.0 0.0 0.0 0.0 0.0 0.0 0.0 0.0 0.0 0.0 0.0 0.0 0.0 0.0 0.0 0.0 0.0 0.0 0.0 0.0 0.0 0.0 0.0 0.0 0.0 0.0 0.0 0.0 0.0 0.0 0.0 0.0 0.0 0.0 0.0 0.0 0.0 0.0 0.0 0.0 0.0 0.0 0.0 0.0 0.0 0.0 0.0 0.0 0.0 0.0 0.0 0.0 0.0 0.0 0.0 0.0 0.0 0.0 0.0 0.0 0.0 0.0 0.0 0.0 0.0 0.0 0.0 0.0 0.0 0.0 0.0 0.0 0.0 0.0 0.0 0.0 0.0 0.0 0.0 0.0
-0.2642 66.9789 -0.17750000000000002 -0.266128 64.718523 -0.819267 2.450891 1.008111 -46.777216 6.11987 -10.621955 -138.011157 -12.468024 -6.123733 -100.856099 -37.098804 37.979657 -112.96266 128.67259 -10.099406 20.840807 -32.806076 -14.470955 46.659485 -93.801644 -43.551707 162.900295 5.34005 -51.191207 4.140385 25.735894 -27.013355 -56.977552 -75.641303 13.80912 140.044792 -162.830685 11.610411 13.907572 24.063109 45.839066 -111.546983 -178.132302 13.056541 -132.104726 7.838525 54.579992 33.132442 135.330366 37.60388 -90.865053 175.616071 12.916546 -164.710979 39.6052 41.504985 -51.771092 34.903356 -9.744299 -34.724707 -59.190038 -3.972365 -34.313866 -155.628419 -4.234282 -98.94823 -73.901512 31.245872 -16.662649 -2.72504 44.221733 -2.533665 51.842716 76.320948 127.166019 -3.398973 27.097673 96.658401 -142.585543 -0.032077 -71.940057 -47.580389 -52.877316 -51.533273 124.954774 -14.367426 -63.819599 -58.050257 77.360925 -62.267003 38.255173 22.856664 64.301696 -99.705215 39.48931 51.402681 -82.415065 20.255598 90.342135 -79.467341 -64.705248 -59.132315 153.9565 38.347312 58.091697 -12.424961 42.51889 11.984694 32.092672 -61.790397 10.245544 -47.394465 58.464926 2.308263 -5.706031 -2.704597 -73.913003 -71.15257 -16.919128 106.686729 -65.897207 -9.669631 -87.926472 1.479879 67.951858 4.424056 -10.322778 -3.880743 -70.268914 -81.454836 12.11274 91.709337
-0.3438 61.03920000000001 0.7897 -177.774753 -26.630215 -176.817822 -3.432064 4.777564 -162.825283 -0.848203 4.254219 176.611524 11.393896 28.569542 -160.656166 44.262188 34.766464 113.454974 163.105879 7.309238 -46.544508 -23.700101 1.836446 -8.736155 -150.816428 -0.804652 165.427629 -50.406608 22.99355 11.981569 19.185508 -28.489845 -75.896347 166.327597 -0.022945 158.684364 -168.877064 3.432779 113.64364 -146.192619 -27.103872 118.016299 -5.720758 -22.343348 -14.319928 14.930157 46.040467 -8.320745 -170.059046 -34.230908 156.20416 -21.810233 5.354339 -48.522005 -8.02927 -22.788825 -3.324106 145.166877 49.869615 -152.434353 61.750329 15.486951 -82.445307 -118.94307 -63.599227 -4.823224 158.081615 -17.775262 -155.908032 -142.705553 -20.033627 167.618118 -164.566334 7.652497 -108.166783 174.740517 25.095628 -145.787262 -168.178709 -12.84716 -63.099414 136.200868 -1.936092 0.521088 162.645483 -8.243449 -74.101498 -12.78273 -16.660455 -84.533669 42.419131 -63.608411 53.359166 -154.023081 -58.752872 -56.188015 129.67191 34.565576 -134.80835 -22.908018 28.923424 -57.519338 28.79003 -41.558683 -10.292839 51.796098 39.866789 -102.194395 30.480712 22.223464 45.054354 -65.505628 -1.497904 -83.026184 -13.569334 49.175672 170.893217 -107.580308 0.491337 174.625374 -19.693718 78.900921 -80.161633 106.047879 22.331708 -100.614994 7.152531 -37.282806 -128.115573 49.211558 -16.837367 -47.52438
-1.2382 61.9976 0.9467 -179.272394 -25.400833 -176.494286 -9.893286 10.513565 -114.994092 5.188687 13.231349 116.47998 -10.105776 41.023658 -123.871304 44.739801 34.164068 90.412393 -21.056135 -11.048376 54.98542 -2.763348 -0.441933 18.168974 -163.586663 -30.327917 155.712679 -46.589481 -54.370177 -11.749263 152.202853 -17.057143 -150.679823 -9.685507 51.537862 9.37867 179.509846 7.663923 101.219037 -23.386845 -61.83958 -1.237418 -21.757307 0.593465 -0.031308 -134.096223 -46.011473 137.933605 0.716591 34.714679 -6.718937 143.551427 -14.945381 116.856371 -167.517952 43.591035 171.862702 7.525313 -13.082175 -0.036919 24.415141 40.46429 -25.063895 -114.62597 79.014109 97.171389 17.10261 44.548314 -14.204647 -68.181632 3.308352 -48.665009 24.071964 16.368297 -37.512142 -6.295999 -34.422521 2.210978 -18.293683 -11.038696 -15.509001 137.279013 4.951515 -157.017341 143.454897 1.699073 -107.252268 171.422681 -0.770358 -94.918814 161.94172 15.523842 -141.523305 18.043261 59.534017 -6.673891 32.480791 40.614771 -22.387201 -62.570223 -39.230634 -28.933037 44.924672 45.741981 -83.814441 168.153231 25.197774 127.661481 49.647518 52.791307 48.512409 -107.353503 14.485391 40.030584 62.121211 -14.775534 111.13215 48.297155 -11.21246 159.952984 -37.44642 60.5186 -58.447052 96.522839 20.642688 146.810045 58.180085 23.431433 78.294269 58.845253 50.114194 -167.448231
-2.094 68.6631 0.3036 -179.715087 -23.656319 -177.914354 -7.084507 9.722896 -117.346994 3.276028 8.323823 116.707017 -19.449366 27.830608 -69.890427 47.23884 4.702783 46.457658 -1.979986 -0.521001 29.481905 -0.919176 -0.337741 40.349889 17.442444 -25.584492 10.578632 54.095064 23.108443 -23.856277 167.666438 -14.060131 101.966002 172.765187 -0.661295 149.504661 -171.340106 5.523383 89.431252 25.675774 -74.772032 56.810494 -3.323004 -19.381784 -7.490827 -159.118421 -88.022657 126.94387 -142.14765 -30.38309 167.860923 27.240174 -77.635341 -42.000942 -171.976878 5.677403 178.701019 -172.629529 22.790189 178.039313 10.041049 30.155715 10.145582 141.487526 61.015933 -125.277225 78.985222 69.044846 -80.453814 -86.06675 -15.708711 -82.303583 -163.609952 -2.178938 -111.592918 178.102438 13.856231 -143.046076 143.541833 11.569423 -88.304554 -15.283821 -29.974383 -38.760374 148.436278 -21.341999 -131.450104 16.457159 63.057121 11.656452 162.900355 1.444593 -142.619267 14.329941 25.849599 -9.859986 69.291785 -59.029702 60.976067 123.009988 1.331798 157.511565 153.407391 10.867136 174.446344 51.373014 -76.80899 33.550593 87.319745 70.983867 18.581444 -127.723006 17.048329 82.816644 42.640587 -39.674594 142.12369 5.552548 -35.047794 97.691765 -21.967631 24.241385 -49.141568 55.381321 6.452351 77.562915 14.863868 48.003232 75.393279 -144.266615 36.664085 53.68757
-2.5301 72.2149 -0.28609999999999997 -178.864795 -22.349281 -178.62584 -1.2885 9.394601 -99.038628 6.424439 0.436139 98.352693 1.518576 22.242888 60.650437 -34.302403 -17.971965 -91.096942 5.812806 0.681253 13.357771 -24.489386 -9.567787 42.175432 -133.685247 17.327447 141.900157 173.312564 20.499396 134.914316 80.345406 -33.768226 27.285018 -164.893169 51.420875 141.92874 165.488496 -27.975221 83.115102 150.458184 -63.509438 136.355081 -155.670311 1.165059 123.377464 -149.591611 40.08676 78.498151 14.553993 25.309694 -14.475821 20.733341 -67.889744 29.366055 -89.815836 60.68796 87.011158 -114.637161 68.047178 133.017027 -122.099417 -32.649707 -126.096379 18.422829 -57.348947 9.532522 157.741829 -57.946322 -173.725738 -173.850273 -24.650681 132.871215 -158.807569 70.076142 -134.762707 -171.989833 -5.844285 -145.398929 6.429397 20.265218 7.006509 134.858891 -27.489 -105.375168 1.414989 5.552728 6.588789 146.944841 -14.695705 -94.511978 161.471388 -14.698358 -150.9826 173.891439 -76.011966 -148.465452 11.775712 3.751719 0.382978 -21.699291 1.151973 -10.067054 58.016798 81.899041 -56.412605 35.341694 31.105424 -81.799996 -93.430141 11.767352 -18.979781 88.760862 -14.877804 176.266437 8.169755 -55.130563 -56.536672 -165.293462 23.871789 121.305052 -23.298647 19.960106 -42.880454 49.431723 2.848409 76.554282 4.071809 46.702088 -123.551964 105.468826 -30.702049 -173.367882
-2.6422999999999996 73.4733 -0.675 -177.862571 -21.606155 -178.941961 -0.381005 6.827479 -175.340703 1.876206 4.458265 175.167252 1.905089 36.969659 151.680879 -31.982182 43.533843 -164.532142 12.865512 -0.080522 -0.714174 -55.048268 -8.321861 15.895117 19.559191 -25.258011 7.375133 74.807303 47.255001 -32.729867 -25.900884 1.086979 29.958925 7.418962 -14.14847 5.898415 -171.499453 -14.405109 86.637495 -159.574865 7.264019 78.943258 0.806438 -49.426902 -19.892451 -137.229573 52.198111 154.753054 -149.375314 -63.037504 167.209114 39.104396 -42.402316 12.271077 -122.67237 45.008284 131.005271 14.647191 62.991224 10.519338 -128.317063 -19.692968 -126.003632 -0.772119 -62.960855 -17.006728 116.663781 64.073053 -121.259628 102.838633 14.210827 -85.592178 3.335051 -38.902857 70.287204 -160.030898 -29.6556 -141.308916 164.928725 -11.717977 -106.598575 146.550944 10.422575 -89.713816 167.061956 -38.074902 -127.346331 10.887609 36.884377 18.054115 -14.733918 -60.727888 16.834943 130.66731 15.095848 -110.246319 -3.604866 -29.285142 -5.38291 159.766909 -21.280309 179.132805 86.884872 -36.319351 38.943206 97.054833 44.160758 109.722649 16.205171 31.822682 44.51295 -66.563236 -21.59913 128.364064 -16.539179 -47.904291 -136.362682 -120.926979 48.829276 48.964633 60.23145 9.92393 27.742283 -54.301359 1.641451 88.591032 50.876247 -6.495147 73.847004 -134.346986 -9.271822 151.106109
